<svg xmlns="http://www.w3.org/2000/svg" width="40.065" height="46.536" viewBox="0 0 40.065 46.536"><g transform="translate(-855.468 -1125.463)"><g transform="translate(858 1135)" fill="none" stroke="#267df4" stroke-width="3"><circle cx="17.5" cy="17.5" r="17.5" stroke="none"/><circle cx="17.5" cy="17.5" r="16" fill="none"/></g><path d="M858.336,1140.015c-.05-.079-.1-.153-.152-.234a8.493,8.493,0,0,1,3-11.688,8.629,8.629,0,0,1,11.7,3.269c.047.081.084.165.128.248a26.853,26.853,0,0,0-14.67,8.4Z" fill="none" stroke="#267df4" stroke-width="3"/><path d="M892.664,1140.015c.05-.079.1-.153.152-.234a8.493,8.493,0,0,0-3-11.688,8.629,8.629,0,0,0-11.7,3.269c-.047.081-.084.165-.128.248a26.853,26.853,0,0,1,14.67,8.4Z" fill="none" stroke="#267df4" stroke-width="3"/><g fill="none"><path d="M867.542,1167.43a1.47,1.47,0,0,1,0,2.07l-2.057,2.069a1.448,1.448,0,0,1-2.057,0,1.47,1.47,0,0,1,0-2.069l2.057-2.07A1.449,1.449,0,0,1,867.542,1167.43Z" stroke="none"/><path d="M 866.5133666992188 1167.001586914062 C 866.8856201171875 1167.001586914062 867.2578735351562 1167.144409179688 867.5418701171875 1167.43017578125 C 868.1099243164062 1168.001953125 868.1099243164062 1168.92822265625 867.5418701171875 1169.500122070312 L 865.4848022460938 1171.569458007812 C 865.2008056640625 1171.85546875 864.8285522460938 1171.998413085938 864.456298828125 1171.998413085938 C 864.0840454101562 1171.998413085938 863.7117919921875 1171.85546875 863.4277954101562 1171.569458007812 C 862.8598022460938 1170.998046875 862.8598022460938 1170.071533203125 863.4277954101562 1169.500122070312 L 865.4848022460938 1167.43017578125 C 865.7688598632812 1167.144409179688 866.14111328125 1167.001586914062 866.5133666992188 1167.001586914062 Z" stroke="none" fill="#267df4"/></g><g fill="none"><path d="M883.458,1167.427a1.455,1.455,0,0,0,0,2.057l2.057,2.057a1.455,1.455,0,0,0,2.057-2.057l-2.057-2.057A1.455,1.455,0,0,0,883.458,1167.427Z" stroke="none"/><path d="M 884.486572265625 1167.001586914062 C 884.8588256835938 1167.001586914062 885.2310791015625 1167.1435546875 885.5150756835938 1167.427368164062 L 887.5722045898438 1169.484497070312 C 888.1401977539062 1170.053100585938 888.1401977539062 1170.973266601562 887.5722045898438 1171.5419921875 C 887.2882080078125 1171.826049804688 886.9159545898438 1171.968017578125 886.543701171875 1171.968017578125 C 886.1714477539062 1171.968017578125 885.7991333007812 1171.826049804688 885.5150756835938 1171.5419921875 L 883.4581298828125 1169.484497070312 C 882.8900756835938 1168.916748046875 882.8900756835938 1167.99609375 883.4581298828125 1167.427368164062 C 883.7421264648438 1167.1435546875 884.1143798828125 1167.001586914062 884.486572265625 1167.001586914062 Z" stroke="none" fill="#267df4"/></g><g fill="none"><path d="M874.009,1152.592q0-.021,0-.042c0-.015,0-.03,0-.045v-5.112a1.477,1.477,0,0,1,2.95,0v3.631h6.56a1.482,1.482,0,0,1,0,2.965h-8.035A1.438,1.438,0,0,1,874.009,1152.592Z" stroke="none"/><path d="M 875.4840087890625 1153.989013671875 C 874.6694946289062 1153.989013671875 874.0089111328125 1153.363525390625 874.0089111328125 1152.59228515625 C 874.0089111328125 1152.578125 874.0091552734375 1152.56396484375 874.0096435546875 1152.5498046875 C 874.0091552734375 1152.534912109375 874.0089111328125 1152.519897460938 874.0089111328125 1152.5048828125 L 874.0089111328125 1147.392944335938 C 874.0089111328125 1146.620727539062 874.6694946289062 1145.99609375 875.4840087890625 1145.99609375 C 876.2985229492188 1145.99609375 876.9591064453125 1146.620727539062 876.9591064453125 1147.392944335938 L 876.9591064453125 1151.023559570312 L 883.5192260742188 1151.023559570312 C 884.3338012695312 1151.023559570312 884.993408203125 1151.686767578125 884.993408203125 1152.5048828125 C 884.993408203125 1153.324829101562 884.3338012695312 1153.988159179688 883.5192260742188 1153.988159179688 L 875.4840087890625 1153.989013671875 Z" stroke="none" fill="#267df4"/></g></g></svg>