<svg xmlns="http://www.w3.org/2000/svg" width="42" height="51" viewBox="0 0 42 51"><g transform="translate(-255 -1122)"><g transform="translate(255 1142)" fill="none" stroke="#267df4" stroke-width="3"><rect width="42" height="31" rx="4" stroke="none"/><rect x="1.5" y="1.5" width="39" height="28" rx="2.5" fill="none"/></g><g transform="translate(260 1122)" fill="none" stroke="#267df4" stroke-width="3"><path d="M15,0h2A15,15,0,0,1,32,15v8a0,0,0,0,1,0,0H0a0,0,0,0,1,0,0V15A15,15,0,0,1,15,0Z" stroke="none"/><path d="M15,1.5h2A13.5,13.5,0,0,1,30.5,15v5A1.5,1.5,0,0,1,29,21.5H3A1.5,1.5,0,0,1,1.5,20V15A13.5,13.5,0,0,1,15,1.5Z" fill="none"/></g><g fill="none"><path d="M276,1127a11,11,0,0,1,11,11v7H265v-7A11,11,0,0,1,276,1127Z" stroke="none"/><path d="M 275.9999694824219 1129.999755859375 C 271.5888366699219 1129.999755859375 268.0000610351562 1133.588500976562 268.0000610351562 1137.999633789062 L 268.0000610351562 1142.000122070312 L 283.9999694824219 1142.000122070312 L 283.9999694824219 1137.999633789062 C 283.9999694824219 1133.588500976562 280.4112243652344 1129.999755859375 275.9999694824219 1129.999755859375 M 275.9999694824219 1126.999755859375 C 282.0751342773438 1126.999755859375 286.9999694824219 1131.924926757812 286.9999694824219 1137.999633789062 L 286.9999694824219 1145.000122070312 L 265.0000610351562 1145.000122070312 L 265.0000610351562 1137.999633789062 C 265.0000610351562 1131.924926757812 269.9248962402344 1126.999755859375 275.9999694824219 1126.999755859375 Z" stroke="none" fill="#267df4"/></g><g fill="none"><path d="M273.525,1162.425l-4.95-4.95a1.5,1.5,0,0,1,2.121-2.121l3.889,3.889,6.717-6.718a1.5,1.5,0,1,1,2.121,2.121l-7.778,7.779a1.5,1.5,0,0,1-2.121,0Z" stroke="none"/><path d="M 274.5859680175781 1162.863525390625 C 274.2021179199219 1162.863525390625 273.8182678222656 1162.71728515625 273.5252685546875 1162.424682617188 L 268.5753479003906 1157.474731445312 C 267.9894104003906 1156.888793945312 267.9894104003906 1155.939331054688 268.5753479003906 1155.353393554688 C 268.8682556152344 1155.060546875 269.2521057128906 1154.9140625 269.6359558105469 1154.9140625 C 270.0198059082031 1154.9140625 270.4036560058594 1155.060546875 270.6965637207031 1155.353393554688 L 274.5858764648438 1159.24267578125 L 281.3031005859375 1152.524780273438 C 281.5960693359375 1152.232177734375 281.9799194335938 1152.0859375 282.36376953125 1152.0859375 C 282.7476196289062 1152.0859375 283.1314697265625 1152.232177734375 283.4244079589844 1152.524780273438 C 284.0103454589844 1153.110595703125 284.0103454589844 1154.06103515625 283.4244079589844 1154.64599609375 L 275.6465759277344 1162.424682617188 C 275.3536376953125 1162.71728515625 274.9697875976562 1162.863525390625 274.5859680175781 1162.863525390625 Z" stroke="none" fill="#267df4"/></g></g></svg>